<?xml version="1.0" standalone="no"?>
<svg viewBox="0 0 200 200" xmlns="http://www.w3.org/2000/svg">
  <path fill="#833ab477" d="M30.5,-51.8C36.7,-49.3,36.8,-35.3,40.8,-24.8C44.9,-14.2,52.8,-7.1,59.6,3.9C66.4,14.9,72,29.9,66.8,38.3C61.5,46.8,45.4,48.8,32.5,57.6C19.5,66.5,9.8,82.2,-1.2,84.2C-12.1,86.3,-24.2,74.6,-24.3,58.3C-24.5,42.1,-12.6,21.3,-12,10.8C-11.3,0.3,-21.8,0.1,-27,-3C-32.2,-6.2,-32.1,-12.3,-32.5,-22.3C-32.8,-32.2,-33.6,-45.9,-28.3,-48.8C-22.9,-51.8,-11.5,-44.1,0.4,-44.7C12.2,-45.3,24.4,-54.3,30.5,-51.8Z" transform="translate(100 100)" />
</svg>
