<?xml version="1.0" standalone="no"?>
<svg viewBox="0 0 200 200" xmlns="http://www.w3.org/2000/svg">
  <path fill="#833ab477" d="M28.8,-43.6C36,-34.3,39.8,-24.2,43.4,-13.9C46.9,-3.7,50.2,6.9,48.2,16.5C46.2,26.1,38.9,34.8,30,42C21.1,49.2,10.5,54.9,-4.1,60.5C-18.6,66.1,-37.3,71.5,-52.3,66.3C-67.4,61.1,-78.8,45.2,-77.2,29.9C-75.5,14.6,-60.8,-0.2,-51.4,-12.9C-42.1,-25.7,-38.2,-36.4,-30.5,-45.6C-22.8,-54.7,-11.4,-62.4,-0.3,-61.9C10.7,-61.5,21.5,-52.9,28.8,-43.6Z" transform="translate(100 100)" />
</svg>
