<?xml version="1.0" standalone="no"?><svg xmlns="http://www.w3.org/2000/svg" viewBox="0 0 1440 320"><path fill="#833ab433" fill-opacity="1" d="M0,256L40,240C80,224,160,192,240,197.3C320,203,400,245,480,234.7C560,224,640,160,720,122.7C800,85,880,75,960,106.7C1040,139,1120,213,1200,229.3C1280,245,1360,203,1400,181.3L1440,160L1440,320L1400,320C1360,320,1280,320,1200,320C1120,320,1040,320,960,320C880,320,800,320,720,320C640,320,560,320,480,320C400,320,320,320,240,320C160,320,80,320,40,320L0,320Z"></path></svg>