<?xml version="1.0" standalone="no"?><svg xmlns="http://www.w3.org/2000/svg" viewBox="0 0 1440 320"><path fill="#f5614080" fill-opacity="1" d="M0,160L18.5,154.7C36.9,149,74,139,111,144C147.7,149,185,171,222,192C258.5,213,295,235,332,224C369.2,213,406,171,443,149.3C480,128,517,128,554,138.7C590.8,149,628,171,665,149.3C701.5,128,738,64,775,74.7C812.3,85,849,171,886,208C923.1,245,960,235,997,218.7C1033.8,203,1071,181,1108,154.7C1144.6,128,1182,96,1218,85.3C1255.4,75,1292,85,1329,128C1366.2,171,1403,245,1422,282.7L1440,320L1440,320L1421.5,320C1403.1,320,1366,320,1329,320C1292.3,320,1255,320,1218,320C1181.5,320,1145,320,1108,320C1070.8,320,1034,320,997,320C960,320,923,320,886,320C849.2,320,812,320,775,320C738.5,320,702,320,665,320C627.7,320,591,320,554,320C516.9,320,480,320,443,320C406.2,320,369,320,332,320C295.4,320,258,320,222,320C184.6,320,148,320,111,320C73.8,320,37,320,18,320L0,320Z"></path></svg>